<svg xmlns="http://www.w3.org/2000/svg" viewBox="0 0 64 64" fill="none">
  <rect width="64" height="64" rx="14" fill="#0e0e17"/>
  <rect width="64" height="64" rx="14" fill="url(#grad)" opacity="0.15"/>
  <rect x="1" y="1" width="62" height="62" rx="13" stroke="#e50914" stroke-width="1.5" stroke-opacity="0.6"/>
  <!-- D -->
  <path d="M10 16 L10 48 L22 48 C30 48 36 42 36 32 C36 22 30 16 22 16 Z" fill="#e50914"/>
  <path d="M16 22 L16 42 L21 42 C26 42 29.5 37.5 29.5 32 C29.5 26.5 26 22 21 22 Z" fill="#07070d"/>
  <!-- L -->
  <path d="M40 16 L40 48 L56 48 L56 42 L46 42 L46 16 Z" fill="#e50914"/>
  <defs>
    <linearGradient id="grad" x1="0" y1="0" x2="64" y2="64" gradientUnits="userSpaceOnUse">
      <stop offset="0%" stop-color="#e50914"/>
      <stop offset="100%" stop-color="#7b0000"/>
    </linearGradient>
  </defs>
</svg>
